<svg width="872" height="872" viewBox="0 0 872 872" fill="none" xmlns="http://www.w3.org/2000/svg">
<circle cx="436" cy="436" r="436" fill="#FFF22D"/>
<path fill-rule="evenodd" clip-rule="evenodd" d="M249.843 537.569C249.843 537.569 208.422 515.653 225.432 487.005C225.432 487.005 231.527 451.254 275.125 464.335C275.125 464.335 300.842 475.814 302.371 501.457L334.651 506.065L339.269 456.882C339.269 456.882 356.216 441.655 357.087 432.077L350.981 424.241L348.359 417.265L355.218 411.807C355.218 411.807 376.253 385.878 366.664 374.548C366.664 374.548 351.141 358.122 346.607 357.113L357.947 340.549C357.947 340.549 443.37 397.218 466.05 398.959C466.05 398.959 542.777 420.759 561.083 419.888L616.871 527.991L622.095 546.297L621.224 556.756C621.224 556.756 652.601 589.885 657.847 592.508C657.847 592.508 683.128 614.296 687.482 626.507C687.482 626.507 683.128 657.024 647.377 651.789C647.377 651.789 613.388 658.754 604.66 655.272C604.66 655.272 605.531 679.683 597.695 680.553C597.695 680.553 609.905 688.4 610.776 693.624C610.776 693.624 601.177 718.036 589.848 721.529C589.848 721.529 514.873 754.658 454.71 738.093C454.71 738.093 365.794 725.022 336.148 700.611C336.148 700.611 244.598 648.306 241.115 637.847C241.115 637.847 203.633 612.565 213.221 579.437C213.232 579.415 227.184 541.933 249.843 537.569Z" fill="#E7A95C"/>
<path fill-rule="evenodd" clip-rule="evenodd" d="M522.104 507.87C522.104 507.87 542.575 491.847 531.894 445.563C531.894 445.563 581.746 393.067 628.912 446.455C628.912 446.455 664.525 494.513 621.798 535.456C621.798 535.456 596.866 500.745 522.104 507.87Z" fill="white"/>
<path fill-rule="evenodd" clip-rule="evenodd" d="M598.649 486.06C598.649 488.538 597.665 490.915 595.913 492.668C594.16 494.42 591.784 495.404 589.305 495.404C586.827 495.404 584.451 494.42 582.698 492.668C580.946 490.915 579.961 488.538 579.961 486.06C579.961 483.582 580.946 481.205 582.698 479.453C584.451 477.701 586.827 476.716 589.305 476.716C591.784 476.716 594.16 477.701 595.913 479.453C597.665 481.205 598.649 483.582 598.649 486.06Z" fill="black"/>
<path fill-rule="evenodd" clip-rule="evenodd" d="M531.893 445.552C531.893 445.552 491.852 374.357 426.879 411.733C426.879 411.733 374.372 441.103 397.509 503.4C397.509 503.4 420.646 551.458 482.954 539.895C482.954 539.895 489.176 507.849 522.114 507.849C522.103 507.87 540.802 485.604 531.893 445.552Z" fill="white"/>
<path fill-rule="evenodd" clip-rule="evenodd" d="M452.682 466.481C452.683 469.667 451.419 472.723 449.167 474.978C446.914 477.232 443.859 478.499 440.673 478.5C439.095 478.501 437.532 478.191 436.075 477.588C434.617 476.985 433.292 476.1 432.176 474.985C429.921 472.733 428.654 469.678 428.653 466.491C428.651 463.305 429.916 460.248 432.168 457.994C434.42 455.74 437.476 454.473 440.662 454.471C443.848 454.47 446.905 455.734 449.159 457.987C451.413 460.239 452.68 463.294 452.682 466.481Z" fill="black"/>
<path fill-rule="evenodd" clip-rule="evenodd" d="M240.892 463.04C240.892 463.04 299.292 449.215 302.371 501.467L334.65 506.076L339.269 456.892C339.269 456.892 362.321 436.919 356.173 429.232C356.173 429.232 339.312 421.364 355.228 411.818C355.228 411.818 391.457 379.188 342.104 356.104L262.51 382.767C262.51 382.767 234.255 406.243 232.27 416.596C232.259 416.586 215.705 439.457 240.892 463.04Z" fill="#92A2D2"/>
<path fill-rule="evenodd" clip-rule="evenodd" d="M339.864 330.281C339.864 330.281 446.842 454.153 698.811 430.219C698.811 430.219 712.848 371.416 464.521 323.379L339.864 330.281Z" fill="black"/>
<path fill-rule="evenodd" clip-rule="evenodd" d="M261.077 382.427C261.077 382.427 287.304 362.752 326.655 356.19C326.655 356.19 323.427 322.392 358.891 327.457C358.891 327.457 493.647 273.75 637.512 358.865C637.512 358.865 647.653 351.773 644.605 336.578C644.605 336.578 721.629 314.28 743.906 247.417C743.906 247.417 666.903 232.223 664.875 162.312C664.875 162.312 538.222 210.944 474.407 131.913C474.407 131.913 399.421 229.186 273.797 181.563C273.797 181.563 221.11 302.133 129.932 308.206C129.932 308.206 168.433 362.911 249.482 356.837L261.077 382.427Z" fill="#325DA7"/>
<path fill-rule="evenodd" clip-rule="evenodd" d="M338.632 337.597C338.632 337.597 512.897 263.642 636.493 357.867L633.467 375.09C633.467 375.09 550.39 319.366 345.725 343.682L338.632 337.597Z" fill="#FFF22D"/>
<path fill-rule="evenodd" clip-rule="evenodd" d="M614.046 699.995C613.696 705.23 611.158 710.019 607.782 714.171L600.275 721.529C596.201 724.835 591.795 727.71 587.129 730.109C575.705 734.28 564.017 737.688 552.142 740.313C546.41 744.953 507.345 746.458 488.529 746.63C361.44 744.687 256.787 658.202 226.908 630.882L216.576 619.329C211.734 607.681 209.228 596.744 209.228 586.668C209.164 578.943 210.739 571.293 213.847 564.221C220.431 549.398 232.387 540.967 240.255 536.741C226.791 528.055 218.785 517.756 217.15 505.81C216.916 504.175 216.82 502.551 216.82 500.958C216.82 480.55 233.905 464.07 234.903 463.125C225.506 453.049 222.629 443.11 222.629 434.838C222.62 427.616 224.66 420.54 228.511 414.43C232.015 403.302 253.262 384.869 258.996 380.07C259.155 379.741 263.795 378.074 270.782 375.716L265.887 385.506L265.197 386.08C253.963 395.424 237.6 411.33 236.432 417.414L236.241 418.338L235.7 419.102C235.37 419.548 231.166 425.675 231.166 434.541C231.166 441.326 233.841 449.725 242.4 458.39C249.928 457.03 273.32 454.089 289.958 466.481C299.26 473.404 304.558 484.001 306.098 497.687C309.404 498.169 318.432 499.457 325.181 500.419C327.364 500.73 329.308 501.008 330.743 501.213L335.096 454.801L336.402 453.675C346.744 444.724 352.967 435.539 352.967 432.63C352.967 432.569 352.949 432.525 352.932 432.483C352.92 432.452 352.907 432.422 352.903 432.386C350.195 430.888 344.387 427.002 344.069 420.822L344.058 420.292C344.058 415.789 347.031 411.744 352.308 408.665C352.436 408.558 363.712 398.163 363.712 386.09C363.712 385.167 363.649 384.232 363.5 383.298C362.173 374.453 354.347 366.627 340.756 360.235C340.756 360.235 320.932 362.794 302.849 365.279C323.586 358.621 343.888 352.25 343.888 352.25C360.771 360.161 370.232 370.195 372.005 382.077C372.207 383.446 372.302 384.784 372.302 386.112C372.302 402.039 358.647 414.526 357.405 415.545C353.89 417.658 352.648 419.431 352.648 420.334V420.376C352.722 422.022 355.834 424.38 357.957 425.388L358.86 425.824L359.486 426.599C360.812 428.237 361.518 430.289 361.482 432.396C361.482 441.56 350.1 452.974 343.347 458.974L338.473 511.013L298.251 505.258L298.049 501.754C297.285 488.906 292.857 479.371 284.872 473.414C268.488 461.203 242.102 467.203 241.837 467.266L239.596 467.787L237.951 466.247L240.86 469.337C240.701 469.486 225.432 484.16 225.432 501C225.429 502.236 225.51 503.471 225.676 504.695C227.205 515.738 235.816 525.443 251.266 533.534L260.153 538.196L250.639 541.413C250.427 541.477 230.189 548.517 221.662 567.799C219.114 573.575 217.84 579.883 217.84 586.689C217.84 596.012 220.303 606.29 225.081 617.397C233.417 625.764 400.101 789.337 583.689 722.262C589.518 719.331 604.798 709.52 605.446 699.38C605.732 695.058 603.035 690.747 597.769 686.521C590.601 692.584 580.419 695.833 566.997 695.833V687.243C580.238 687.243 589.667 683.962 595.061 677.496C599.956 671.613 600.391 664.35 600.243 660.485C578.199 660.422 551.325 658.17 530.545 649.623C493.88 639.822 452.438 630.744 446.491 632.528L446.311 631.944C444.74 640.151 441.31 648.827 434.854 657.629L427.931 652.532C452.278 619.425 429.003 588.621 428.005 587.326L434.78 582.038C434.981 582.293 448.551 600.142 447.352 623.895C464.468 623.343 520.882 638.155 533.284 641.511C572.652 657.66 637.021 650.091 640.085 649.73C640.138 649.724 640.172 649.72 640.188 649.718C664.472 648.274 678.743 642.976 681.482 634.386C681.834 633.248 682.009 632.062 682.003 630.871C682.003 618.745 665.587 602.722 658.303 596.829C648.534 593.686 631.365 574.956 623.008 565.283C622.833 565.592 622.688 565.921 622.542 566.25C622.352 566.68 622.162 567.111 621.904 567.502C614.471 578.853 602.303 581.337 601.804 581.433L600.126 573.013C600.232 573.002 609.396 571.016 614.768 562.702C618.909 556.332 619.844 547.763 617.688 537.304C613.823 532.802 588.255 506.479 524.174 512.064L524.068 512.202H522.242L514.883 512.893C492.235 516.981 487.34 539.714 487.117 540.776V540.808C487.552 546.616 489.93 563.563 502.98 567.056L500.761 575.359C484.526 571.017 480.087 554.027 478.877 544.821C417.748 553.486 393.825 505.821 393.433 504.961C369.287 439.967 424.172 408.357 424.682 408.07C443.922 397.006 463.003 393.948 481.404 399.002C508.449 406.435 526.117 429.115 532.711 438.916C540.632 431.972 559.713 417.828 583.275 418.253C601.05 418.571 617.476 427.119 632.299 443.949C632.702 444.448 668.539 494.205 626.289 536.9C627.638 544.248 627.574 550.842 626.225 556.714L626.639 556.353C639.519 571.675 656.445 588.441 661.17 588.972L662.391 589.11L663.368 589.885C666.755 592.582 696.072 616.781 689.648 637.008C685.645 649.623 669.632 656.599 640.974 658.298C630.301 659.526 619.575 660.241 608.833 660.443C609.003 665.125 608.323 672.887 603.672 680.118C611.02 686.139 614.524 692.807 614.046 699.995ZM479.631 535.923C482.2 527.684 491.863 505.237 519.672 503.867C521.934 500.83 530.025 488.513 530.035 466.842C530.035 460.906 529.345 454.27 527.774 447.039C525.777 443.673 508.109 415.174 479.121 407.242C463.035 402.835 446.173 405.596 428.982 415.492C426.975 416.618 379.99 443.928 401.375 501.542C402.256 503.357 423.482 544.928 479.631 535.923ZM531.182 503.113C586.715 500.278 613.08 520.262 621.702 528.99C634.21 515.526 638.606 501.51 638.606 489.034C638.606 467.436 626.553 450.511 625.702 449.315L625.684 449.29C612.74 434.647 598.459 427.077 583.232 426.779C560.446 426.344 541.715 442.218 536.534 447.049C537.057 449.591 537.478 452.152 537.797 454.726C538.668 460.439 539.273 465.843 539.273 470.547C539.273 486.602 535.1 496.764 531.182 503.113ZM270.835 375.695L273.819 369.738C274.53 369.229 288.121 367.254 302.881 365.236C291.126 369.006 279.255 372.85 270.835 375.695Z" fill="black"/>
<path fill-rule="evenodd" clip-rule="evenodd" d="M522.22 273.442C346.182 252.631 250.915 331.152 249.97 331.948L248.441 333.244V352.601L249.132 352.569L252.126 352.346C252.126 352.346 253.867 356.158 255.97 360.83H257.032V337.332C269.211 327.977 360.506 262.983 520.883 281.937C521.626 282.096 625.546 302.695 640.528 341.579L640.794 341.462C640.778 340.108 640.639 338.757 640.38 337.427L639.615 333.562L643.385 332.458C643.983 332.276 644.578 332.081 645.168 331.874C621.108 293.065 526.457 274.27 522.22 273.442Z" fill="black"/>
<path fill-rule="evenodd" clip-rule="evenodd" d="M744.745 243.212C741.719 242.618 671.066 227.784 669.155 162.195L668.985 156.143L663.325 158.309C662.083 158.787 538.827 204.881 477.73 129.226L474.322 125L470.988 129.3C468.004 133.165 396.384 223.441 275.305 177.549L271.483 176.105L269.848 179.853C269.327 181.021 217.118 298.097 129.624 303.927L122 304.437L126.396 310.68C127.999 312.974 166.331 365.863 246.742 361.244L259.357 389.063L263.636 385.867C263.891 385.666 289.587 366.723 327.345 360.426L331.274 359.768L330.923 355.786C330.913 355.659 329.904 343.172 337.252 336.196C341.807 331.874 348.879 330.366 358.276 331.715L359.401 331.874L360.474 331.449C361.801 330.929 493.827 280.11 633.371 361.477L629.612 379.613L638.033 381.365L642.429 360.15C645.253 357.219 649.458 351.348 649.458 342.174C649.458 341.377 649.267 340.453 649.192 339.604C663.856 334.72 727.438 310.372 747.973 248.787L749.513 244.157L744.745 243.212ZM645.179 331.874L643.395 332.458L639.625 333.562L640.39 337.427C640.677 338.882 640.783 340.199 640.804 341.462C640.804 341.664 640.868 341.897 640.868 342.089C640.868 347.96 638.5 351.602 636.759 353.588C498.202 273.378 367.418 319.705 358.265 323.125C346.723 321.723 337.623 323.995 331.295 330.026C323.809 337.162 322.503 347.27 322.354 352.717C292.995 358.303 271.557 370.407 262.871 376.014L255.98 360.819L252.136 352.335L249.142 352.558L248.452 352.59C186.389 356.975 150.255 324.516 138.235 311.349C218.562 300.126 266.917 206.282 276.08 186.84C386.902 226.584 459.116 155.559 474.513 138.326C533.03 204.774 637.258 175.935 661.127 168.12C666.266 225.363 720.748 245.431 737.865 250.284C716.628 305.594 655.882 328.264 645.179 331.874Z" fill="black"/>
<path fill-rule="evenodd" clip-rule="evenodd" d="M521.35 248.086C521.35 248.086 491.959 342.312 554.776 353.45C554.776 353.45 613.547 354.459 630.759 286.587C630.759 286.587 585.176 268.345 593.288 239.974C593.298 239.974 558.853 280.503 521.35 248.086Z" fill="#FFF22D"/>
<path fill-rule="evenodd" clip-rule="evenodd" d="M538.997 304.67C538.997 320.725 552.057 333.785 568.112 333.785C584.167 333.785 597.227 320.725 597.227 304.67C597.227 288.616 584.167 275.555 568.112 275.555C552.057 275.555 538.997 288.616 538.997 304.67ZM547.587 304.67C547.587 293.351 556.793 284.135 568.123 284.135C579.452 284.135 588.658 293.351 588.658 304.67C588.658 315.989 579.452 325.206 568.123 325.206C556.793 325.206 547.587 315.989 547.587 304.67Z" fill="black"/>
<path fill-rule="evenodd" clip-rule="evenodd" d="M555.444 255.593C544.805 256.389 534.495 252.546 524.811 244.168L519.852 239.878L517.898 246.132C517.198 248.405 500.771 302.175 520.468 334.56C527.869 346.75 539.379 354.3 554.69 357.018C555.975 357.092 617.741 357.336 635.59 286.97L636.503 283.328L633.021 281.926C632.607 281.746 591.132 264.788 598.076 240.483L590.675 236.512C590.537 236.703 575.46 254.085 555.444 255.593ZM556.156 264.151C570.384 263.058 582.043 255.593 589.274 249.636C591.971 270.172 616.563 283.763 626.066 288.201C608.832 348.109 557.727 348.513 555.508 348.491C543.435 346.283 533.9 340.082 527.826 330.111C521.498 319.706 519.449 306.38 519.449 293.542C519.449 277.148 522.751 261.858 524.694 254.117C534.643 261.125 545.145 265.001 556.156 264.151Z" fill="black"/>
<path fill-rule="evenodd" clip-rule="evenodd" d="M357.883 337.597C357.883 342.704 355.854 347.602 352.243 351.213C348.632 354.824 343.734 356.853 338.627 356.853C333.52 356.853 328.622 354.824 325.011 351.213C321.399 347.602 319.371 342.704 319.371 337.597C319.371 332.49 321.399 327.592 325.011 323.981C328.622 320.37 333.52 318.341 338.627 318.341C343.734 318.341 348.632 320.37 352.243 323.981C355.854 327.592 357.883 332.49 357.883 337.597Z" fill="#FFF22D"/>
<path fill-rule="evenodd" clip-rule="evenodd" d="M315.081 337.597C315.081 350.572 325.646 361.138 338.632 361.138C351.618 361.138 362.183 350.572 362.183 337.597C362.183 324.611 351.618 314.046 338.632 314.046C325.646 314.046 315.081 324.611 315.081 337.597ZM323.681 337.597C323.684 333.632 325.26 329.83 328.063 327.025C330.865 324.22 334.666 322.642 338.632 322.636C341.594 322.632 344.491 323.507 346.956 325.15C349.421 326.793 351.344 329.13 352.48 331.866C353.616 334.602 353.915 337.613 353.339 340.519C352.763 343.425 351.337 346.095 349.243 348.19C347.149 350.286 344.481 351.713 341.575 352.291C338.67 352.87 335.658 352.573 332.921 351.439C330.184 350.304 327.846 348.384 326.201 345.92C324.556 343.456 323.679 340.559 323.681 337.597Z" fill="black"/>
</svg>
